<?xml version="1.0" standalone="no"?>
<!DOCTYPE svg PUBLIC "-//W3C//DTD SVG 20010904//EN"
 "http://www.w3.org/TR/2001/REC-SVG-20010904/DTD/svg10.dtd">
<svg version="1.0" xmlns="http://www.w3.org/2000/svg"
 width="700.000000pt" height="700.000000pt" viewBox="0 0 700.000000 700.000000"
 preserveAspectRatio="xMidYMid meet">
<metadata>
Created by potrace 1.11, written by Peter Selinger 2001-2013
</metadata>
<g transform="translate(0.000000,700.000000) scale(0.100000,-0.100000)"
fill="#000000" stroke="none">
<path d="M1115 6984 c-363 -66 -684 -275 -886 -577 -99 -148 -152 -267 -197
-446 l-27 -106 0 -2345 c0 -2230 1 -2349 18 -2430 58 -268 180 -493 372 -685
208 -209 470 -341 765 -385 54 -8 717 -10 2390 -8 l2315 3 104 28 c499 132
859 489 995 987 l31 115 0 2360 0 2360 -27 106 c-45 179 -98 298 -197 446
-210 313 -553 530 -926 583 -45 6 -890 9 -2360 9 -1950 -1 -2302 -3 -2370 -15z
m1268 -2679 c48 -9 116 -25 152 -36 l65 -20 0 -94 c0 -52 -2 -95 -4 -95 -2 0
-30 12 -62 26 -191 85 -449 99 -580 31 -44 -23 -101 -90 -113 -134 -23 -83 -6
-170 43 -218 41 -42 114 -68 290 -105 168 -34 252 -61 316 -98 55 -32 137
-107 146 -134 9 -29 12 -20 29 76 38 220 166 371 356 421 71 19 230 19 304 0
132 -35 238 -122 299 -247 48 -97 66 -187 66 -334 0 -199 -44 -333 -147 -444
-148 -160 -427 -197 -644 -85 -55 29 -144 128 -180 200 l-32 66 -15 -42 c-43
-129 -143 -214 -307 -260 -68 -19 -105 -23 -240 -23 -170 0 -227 9 -397 60
l-88 27 0 103 0 103 70 -34 c152 -76 319 -113 461 -102 206 16 315 111 313
272 0 83 -24 137 -81 184 -50 41 -114 64 -269 97 -241 50 -365 104 -427 186
-88 115 -101 302 -30 441 51 101 179 191 309 215 79 16 300 14 397 -3z m2497
-90 l0 -85 -270 0 -270 0 0 -675 0 -675 -100 0 -100 0 0 675 0 675 -275 0
-275 0 0 85 0 85 645 0 645 0 0 -85z m427 -289 c87 -23 145 -56 205 -117 96
-98 148 -244 148 -419 l0 -80 -430 0 -430 0 0 -33 c0 -90 50 -207 118 -273
126 -124 404 -135 640 -24 l63 29 -3 -87 -3 -87 -76 -27 c-185 -64 -406 -74
-561 -25 -238 76 -368 272 -368 554 0 307 142 520 392 587 69 19 238 20 305 2z"/>
<path d="M3075 3778 c-51 -18 -108 -61 -141 -105 -124 -163 -121 -501 6 -662
57 -72 132 -106 230 -105 163 1 271 99 315 286 17 71 20 211 6 284 -25 130
-96 240 -185 286 -48 25 -183 34 -231 16z"/>
<path d="M5057 3779 c-127 -30 -228 -147 -250 -291 l-6 -38 340 0 339 0 0 23
c0 42 -31 142 -55 179 -62 93 -148 139 -263 137 -37 -1 -84 -5 -105 -10z"/>
</g>
</svg>
